<svg width="88" height="48" viewBox="0 0 88 48" xmlns="http://www.w3.org/2000/svg"><g fill="none"><path d="M6.652 0v14.063c2.14-2.552 4.707-3.839 7.684-3.839 1.532 0 2.907.292 4.136.875 1.236.576 2.16 1.317 2.781 2.217a8.085 8.085 0 0 1 1.28 2.996c.228 1.09.342 2.788.342 5.087v15.039h-6.651V22.894c0-2.686-.121-4.39-.374-5.112a3.319 3.319 0 0 0-1.337-1.723c-.64-.43-1.438-.646-2.4-.646-1.103 0-2.092.278-2.953.823-.874.551-1.508 1.375-1.907 2.477-.405 1.102-.608 2.73-.602 4.884l-.007 12.84H0V0h6.652zm26.022 0v14.063c2.14-2.552 4.707-3.839 7.684-3.839 1.526 0 2.907.292 4.143.875 1.229.576 2.154 1.317 2.774 2.217a8.093 8.093 0 0 1 1.28 2.996c.228 1.09.342 2.788.342 5.087v15.039h-6.645V22.894c0-2.686-.127-4.39-.38-5.112a3.316 3.316 0 0 0-1.337-1.723c-.633-.43-1.438-.646-2.4-.646-1.103 0-2.091.278-2.953.823-.867.551-1.5 1.375-1.907 2.477-.399 1.102-.6 2.73-.6 4.884v12.84h-6.646V0h6.645zM.02 47.733v-7.349h.887v3.022h3.471l-.006-3.022h.887v7.349H4.37v-3.465H.906v3.465H.02zm9.87-1.717l.848.114c-.133.551-.38.97-.74 1.267-.362.304-.825.456-1.388.456-.71 0-1.267-.24-1.685-.722-.412-.475-.62-1.153-.62-2.015 0-.893.208-1.59.627-2.084.418-.494.968-.741 1.634-.741.646 0 1.172.24 1.584.722.411.488.62 1.166.62 2.046l-.007.24h-3.61c.032.584.184 1.033.45 1.344.272.31.608.469 1.014.469.297 0 .556-.09.772-.266.209-.171.38-.45.5-.83zm-2.693-1.457h2.705c-.038-.444-.14-.786-.31-1.007a1.213 1.213 0 0 0-1.02-.52c-.374 0-.69.133-.944.412-.26.279-.399.653-.43 1.115zm7.678 2.515c-.298.285-.59.487-.874.602-.279.12-.576.177-.9.177-.538 0-.943-.146-1.229-.43-.285-.286-.424-.654-.43-1.097a1.54 1.54 0 0 1 .588-1.229c.172-.133.375-.234.59-.298.158-.05.4-.088.728-.133.666-.088 1.147-.19 1.464-.316.006-.12.006-.203.006-.235 0-.367-.082-.62-.234-.772-.209-.203-.526-.304-.931-.304-.387 0-.672.069-.856.22-.183.147-.323.413-.405.787l-.804-.12c.069-.375.19-.679.361-.913.165-.234.405-.412.722-.539.317-.12.677-.183 1.096-.183.412 0 .747.05 1.007.158.26.108.45.24.57.4.12.164.21.366.254.62.025.152.044.43.044.83v1.203c0 .837.013 1.369.051 1.59.031.222.108.431.21.64h-.856c-.09-.19-.14-.405-.172-.658zm-.063-2.015c-.298.133-.748.247-1.336.342-.343.051-.583.114-.723.184a.705.705 0 0 0-.317.292.807.807 0 0 0-.12.424c0 .24.089.443.253.602.166.165.406.24.722.24.323 0 .603-.07.85-.221.24-.159.424-.368.538-.634.088-.203.133-.5.133-.9v-.329zM20 47.733v-.672c-.304.526-.754.792-1.35.792-.386 0-.74-.114-1.064-.355a2.21 2.21 0 0 1-.747-.975c-.184-.418-.266-.9-.266-1.451 0-.526.076-1.014.234-1.444.165-.431.405-.76.729-.995a1.807 1.807 0 0 1 1.082-.342c.286 0 .546.063.774.203.228.133.411.31.557.532v-2.642h.811v7.349H20zm-2.585-2.66c-.006.683.127 1.196.387 1.532.266.336.57.507.924.507.362 0 .666-.165.913-.482.253-.33.38-.817.38-1.482 0-.729-.134-1.26-.387-1.603-.253-.336-.57-.506-.944-.506-.36 0-.665.164-.912.487-.24.33-.367.843-.361 1.546zm4.726 2.66v-7.349h.88v3.022h3.472v-3.022h.887v7.349h-.887v-3.465H23.02v3.465h-.88zm9.73 0v-.786c-.374.608-.886.906-1.54.906-.284 0-.55-.057-.797-.184a1.322 1.322 0 0 1-.551-.45 1.826 1.826 0 0 1-.253-.671 5.153 5.153 0 0 1-.051-.842V42.41h.823v2.952c0 .469.02.786.05.95a.935.935 0 0 0 .324.558.94.94 0 0 0 .62.202c.248 0 .482-.07.697-.209a1.15 1.15 0 0 0 .456-.563c.09-.241.133-.583.133-1.04v-2.85h.818v5.321h-.729zm1.97 0v-5.321h.735v.753c.354-.582.874-.874 1.546-.874.285 0 .557.057.798.172.247.113.43.266.55.45.122.19.21.411.255.67.032.165.05.457.05.875v3.275h-.823v-3.237c0-.368-.032-.646-.095-.824a.86.86 0 0 0-.336-.437 1.04 1.04 0 0 0-.577-.165c-.348 0-.652.12-.906.368-.253.24-.38.703-.373 1.387l-.007 2.908h-.817zm6.93-.811l.12.798a2.565 2.565 0 0 1-.62.082c-.297 0-.526-.05-.69-.158a.829.829 0 0 1-.348-.405c-.064-.165-.096-.526-.096-1.065v-3.066h-.608v-.696h.608v-1.318l.817-.545-.006 1.862h.824v.697h-.824v3.117c0 .253.013.418.044.494a.38.38 0 0 0 .14.177c.07.038.158.064.285.064.089 0 .209-.013.355-.038zm4.074-.906l.843.114c-.133.551-.38.97-.742 1.273-.36.298-.824.45-1.38.45-.71 0-1.274-.24-1.685-.722-.419-.475-.628-1.153-.628-2.015 0-.893.216-1.59.634-2.084.418-.494.962-.741 1.628-.741.646 0 1.178.24 1.59.722.405.488.614 1.166.614 2.046 0 .05-.006.133-.006.24H42.1c.031.584.183 1.033.45 1.344.272.31.608.469 1.013.469.297 0 .557-.09.772-.266.21-.171.38-.45.508-.83zm-2.692-1.457h2.698c-.038-.444-.14-.786-.31-1.007-.26-.349-.602-.52-1.014-.52-.38 0-.697.133-.95.412-.26.279-.399.653-.424 1.115zm4.51 3.174v-5.321h.741v.804c.184-.38.355-.627.52-.747a.847.847 0 0 1 .519-.178c.285 0 .564.095.849.292l-.285.836a1.065 1.065 0 0 0-.602-.197.733.733 0 0 0-.482.178.96.96 0 0 0-.304.494 3.692 3.692 0 0 0-.133 1.051v2.787h-.823z" fill="#000"/><path d="M86.355 23.846c0 8.85-7.17 16.014-16.014 16.014-8.843 0-16.014-7.165-16.014-16.014 0-8.844 7.17-16.015 16.014-16.015s16.014 7.171 16.014 16.015z" fill="#D71920"/><path d="M63.759 29.997h-3.11V18.258h2.882v1.666c.5-.785.938-1.305 1.337-1.552a2.43 2.43 0 0 1 1.343-.38c.703 0 1.387.196 2.046.59l-.963 2.704c-.526-.342-1.013-.507-1.463-.507-.431 0-.798.12-1.102.355-.304.24-.546.678-.716 1.299-.171.633-.254 1.945-.254 3.94v3.624zm13.45 0v-1.755a4.598 4.598 0 0 1-1.686 1.482 4.732 4.732 0 0 1-2.21.539c-.787 0-1.496-.171-2.117-.52-.627-.348-1.082-.83-1.362-1.463-.278-.621-.417-1.489-.417-2.598v-7.424h3.103v5.391c0 1.654.057 2.667.172 3.035.114.373.323.67.62.886.304.216.69.323 1.153.323a2.429 2.429 0 0 0 1.425-.43c.425-.292.71-.653.862-1.083.159-.431.235-1.49.235-3.168v-4.954h3.11v11.739h-2.889z" fill="#FFF"/></g></svg>