<?xml version="1.0" encoding="utf-8"?>
<!-- Generator: Adobe Illustrator 21.0.0, SVG Export Plug-In . SVG Version: 6.00 Build 0)  -->
<svg version="1.1" id="Layer_1" xmlns="http://www.w3.org/2000/svg" xmlns:xlink="http://www.w3.org/1999/xlink" x="0px" y="0px"
	 viewBox="0 0 150 46" style="enable-background:new 0 0 150 46;" xml:space="preserve">
<style type="text/css">
	.st0{fill:#BDDC5B;}
	.st1{fill-rule:evenodd;clip-rule:evenodd;fill:#BDDC5B;}
</style>
<g>
	<g>
		<path class="st0" d="M20,15.3c0,7-3.3,10.6-9.8,10.6c-6.4,0-9.6-3.4-9.6-10.3V2h5.3v13.6c0,3.8,1.5,5.7,4.4,5.7
			c2.9,0,4.4-1.8,4.4-5.5V2H20V15.3z"/>
		<path class="st0" d="M44.2,25.4H38l-4-7.6c-0.2-0.3-0.3-0.8-0.5-1.6h-0.1c-0.1,0.4-0.3,0.9-0.5,1.6l-4.1,7.6h-6.3L30,13.7L23.1,2
			h6.4l3.4,7c0.3,0.6,0.5,1.2,0.7,2h0.1c0.1-0.5,0.4-1.1,0.7-2l3.7-7H44l-7,11.6L44.2,25.4z"/>
		<path d="M51.7,17v8.4h-3.8V2.2h7c2.7,0,4.7,0.6,6.2,1.9c1.5,1.2,2.2,3,2.2,5.2c0,2.3-0.8,4.1-2.3,5.5c-1.5,1.4-3.6,2.2-6.2,2.2
			H51.7z M51.7,5.4v8.5h2.5c1.7,0,2.9-0.4,3.8-1.1c0.9-0.8,1.3-1.8,1.3-3.2c0-2.7-1.6-4.1-4.8-4.1H51.7z"/>
		<path d="M83.9,25.4h-4.5l-3.7-6.2c-0.3-0.6-0.7-1.1-1-1.5c-0.3-0.4-0.6-0.7-1-1c-0.3-0.3-0.7-0.4-1.1-0.6
			c-0.4-0.1-0.8-0.2-1.3-0.2h-1.6v9.4h-3.8V2.2h7.6c1.1,0,2.1,0.1,3,0.4c0.9,0.3,1.7,0.7,2.4,1.2c0.7,0.5,1.2,1.2,1.6,2
			c0.4,0.8,0.6,1.7,0.6,2.7c0,0.8-0.1,1.6-0.4,2.3c-0.2,0.7-0.6,1.3-1,1.8c-0.4,0.5-1,1-1.6,1.4c-0.6,0.4-1.3,0.7-2.1,0.9v0.1
			c0.4,0.2,0.8,0.5,1.1,0.8c0.3,0.3,0.6,0.6,0.9,0.9c0.3,0.3,0.6,0.6,0.8,1c0.3,0.4,0.6,0.8,0.9,1.3L83.9,25.4z M69.8,5.3v7.5H73
			c0.6,0,1.1-0.1,1.6-0.3c0.5-0.2,0.9-0.4,1.3-0.8c0.4-0.3,0.7-0.8,0.9-1.3c0.2-0.5,0.3-1.1,0.3-1.7c0-1.1-0.4-2-1.1-2.6
			c-0.7-0.6-1.7-0.9-3-0.9H69.8z"/>
		<path d="M99.6,25.4h-13V2.2h12.5v3.3h-8.7v6.6h8v3.3h-8v6.9h9.2V25.4z"/>
		<path d="M138.6,25.8c-3.3,0-6-1.1-8-3.3c-2-2.2-3-5-3-8.5c0-3.7,1-6.7,3.1-8.9c2-2.2,4.8-3.3,8.4-3.3c3.3,0,5.9,1.1,7.9,3.2
			c2,2.2,3,5,3,8.5c0,3.8-1,6.8-3.1,9C144.8,24.7,142.1,25.8,138.6,25.8z M138.8,5.2c-2.1,0-3.9,0.8-5.2,2.4c-1.3,1.6-2,3.7-2,6.3
			c0,2.6,0.6,4.7,1.9,6.2c1.3,1.6,3,2.4,5.1,2.4c2.2,0,4-0.8,5.3-2.3c1.3-1.5,1.9-3.6,1.9-6.3c0-2.8-0.6-4.9-1.9-6.4
			C142.7,6,141,5.2,138.8,5.2z"/>
	</g>
	<g>
		<path class="st0" d="M106.2,28.1c8.1-3.3,3.9-9.9,2-12.2c-3.5-4.3-5.5-6.7-4.7-10.4c0.8-3.5,4.3-5.7,8.2-4.4
			c-5.2,0.6-5,4.4-3.4,7.6c0.8,1.7,3.8,5.8,4.5,6.9C115.5,20.4,114.1,27,106.2,28.1z"/>
	</g>
	<g>
		<path class="st0" d="M116.4,28.1c8.1-3.3,3.9-9.9,2-12.2c-3.5-4.3-5.5-6.7-4.7-10.4c0.8-3.5,4.3-5.7,8.2-4.4
			c-5.2,0.6-5,4.4-3.4,7.6c0.8,1.7,3.8,5.8,4.5,6.9C125.7,20.4,124.3,27,116.4,28.1z"/>
	</g>
	<path class="st1" d="M125.3,33.9c-0.3,0-0.7,0.1-1,0.3c0-0.3,0-1,0-1.3c0-0.7,0-1.9-0.9-1.9H114h-8.5c-0.9,0-0.9,1.2-0.9,1.9
		c0.1,2.8,0.5,7,2.1,10c1.6,3,4.6,3.2,4.6,3.2s1,0,2.7,0c1.9,0,3.6,0,3.6,0s3,0,4.6-2.9c0-0.1,0.1-0.2,0.1-0.3
		c2.3,0.6,4.8-1.1,5.7-3.5C129.2,36.5,128.4,33.7,125.3,33.9z M127.3,38.5c-0.2,2.1-2.5,4.2-4.7,3.9c0.9-1.9,1.4-4.1,1.6-6.1
		C126.4,34.8,127.5,36.3,127.3,38.5z"/>
	<g>
		<path d="M2.8,37.3c-0.2,0.1-0.4,0.1-0.7,0.1c-0.8,0-1.2-0.4-1.2-1.3v-2.7H0.1v-0.6h0.8v-1.1l0.7-0.2v1.4h1.2v0.6H1.6V36
			c0,0.3,0.1,0.5,0.2,0.7c0.1,0.1,0.3,0.2,0.5,0.2c0.2,0,0.3-0.1,0.5-0.2V37.3z"/>
		<path d="M8.7,37.3H8v-0.7h0c-0.3,0.5-0.8,0.8-1.4,0.8c-0.5,0-0.8-0.1-1.1-0.4c-0.3-0.2-0.4-0.6-0.4-1c0-0.9,0.5-1.4,1.5-1.5
			L8,34.5c0-0.8-0.3-1.2-0.9-1.2c-0.6,0-1,0.2-1.5,0.6v-0.8c0.4-0.3,1-0.4,1.6-0.4c1.1,0,1.6,0.6,1.6,1.7V37.3z M8,35l-1.1,0.2
			c-0.3,0-0.6,0.1-0.8,0.3c-0.2,0.1-0.3,0.3-0.3,0.6c0,0.2,0.1,0.4,0.2,0.5c0.2,0.1,0.4,0.2,0.6,0.2c0.4,0,0.7-0.1,0.9-0.4
			c0.2-0.3,0.4-0.6,0.4-1V35z"/>
		<path d="M11.2,37.2v-0.8c0.4,0.3,0.8,0.4,1.3,0.4c0.6,0,1-0.2,1-0.6c0-0.1,0-0.2-0.1-0.3c-0.1-0.1-0.1-0.2-0.2-0.2
			c-0.1-0.1-0.2-0.1-0.3-0.2c-0.1-0.1-0.3-0.1-0.4-0.2c-0.2-0.1-0.4-0.2-0.5-0.2c-0.2-0.1-0.3-0.2-0.4-0.3c-0.1-0.1-0.2-0.2-0.2-0.3
			c-0.1-0.1-0.1-0.3-0.1-0.5c0-0.2,0-0.4,0.1-0.6c0.1-0.2,0.2-0.3,0.4-0.4c0.2-0.1,0.4-0.2,0.6-0.3c0.2-0.1,0.4-0.1,0.6-0.1
			c0.4,0,0.8,0.1,1.1,0.2v0.7c-0.3-0.2-0.7-0.3-1.2-0.3c-0.1,0-0.3,0-0.4,0c-0.1,0-0.2,0.1-0.3,0.1c-0.1,0.1-0.1,0.1-0.2,0.2
			c0,0.1-0.1,0.2-0.1,0.3c0,0.1,0,0.2,0.1,0.3c0,0.1,0.1,0.2,0.2,0.2c0.1,0.1,0.2,0.1,0.3,0.2c0.1,0,0.3,0.1,0.4,0.2
			c0.2,0.1,0.4,0.2,0.5,0.2c0.2,0.1,0.3,0.2,0.4,0.3c0.1,0.1,0.2,0.2,0.3,0.4c0.1,0.1,0.1,0.3,0.1,0.5c0,0.2,0,0.4-0.1,0.6
			c-0.1,0.2-0.2,0.3-0.4,0.4c-0.2,0.1-0.4,0.2-0.6,0.2c-0.2,0.1-0.4,0.1-0.7,0.1C12,37.5,11.6,37.4,11.2,37.2z"/>
		<path d="M19.2,37.3c-0.2,0.1-0.4,0.1-0.7,0.1c-0.8,0-1.2-0.4-1.2-1.3v-2.7h-0.8v-0.6h0.8v-1.1l0.7-0.2v1.4h1.2v0.6H18V36
			c0,0.3,0.1,0.5,0.2,0.7c0.1,0.1,0.3,0.2,0.5,0.2c0.2,0,0.3-0.1,0.5-0.2V37.3z"/>
		<path d="M25.2,35.2H22c0,0.5,0.1,0.9,0.4,1.2c0.3,0.3,0.6,0.4,1.1,0.4c0.5,0,1-0.2,1.4-0.5V37c-0.4,0.3-0.9,0.4-1.6,0.4
			c-0.6,0-1.2-0.2-1.5-0.6c-0.4-0.4-0.6-1-0.6-1.8c0-0.7,0.2-1.3,0.6-1.7c0.4-0.4,0.9-0.7,1.5-0.7c0.6,0,1.1,0.2,1.4,0.6
			c0.3,0.4,0.5,0.9,0.5,1.6V35.2z M24.5,34.6c0-0.4-0.1-0.8-0.3-1c-0.2-0.2-0.5-0.4-0.8-0.4c-0.3,0-0.6,0.1-0.9,0.4
			c-0.2,0.2-0.4,0.6-0.4,1H24.5z"/>
		<path d="M30,31.2c-0.1-0.1-0.3-0.1-0.5-0.1c-0.5,0-0.8,0.3-0.8,1v0.7h1.1v0.6h-1.1v3.9h-0.7v-3.9h-0.8v-0.6h0.8V32
			c0-0.5,0.1-0.9,0.4-1.1c0.3-0.3,0.6-0.4,1-0.4c0.2,0,0.4,0,0.5,0.1V31.2z"/>
		<path d="M35.6,37.3h-0.7v-0.7h0c-0.3,0.6-0.8,0.8-1.4,0.8c-1.1,0-1.6-0.6-1.6-1.9v-2.7h0.7v2.6c0,1,0.4,1.4,1.1,1.4
			c0.4,0,0.7-0.1,0.9-0.4c0.2-0.3,0.3-0.6,0.3-1v-2.6h0.7V37.3z"/>
		<path d="M39.1,37.3h-0.7v-6.8h0.7V37.3z"/>
		<path d="M48.4,31.6c-0.1,0-0.2,0-0.3-0.1c-0.1-0.1-0.1-0.2-0.1-0.3c0-0.1,0-0.3,0.1-0.3c0.1-0.1,0.2-0.1,0.3-0.1
			c0.1,0,0.2,0,0.3,0.1c0.1,0.1,0.1,0.2,0.1,0.3c0,0.1,0,0.2-0.1,0.3C48.6,31.6,48.5,31.6,48.4,31.6z M48.7,37.3H48v-4.6h0.7V37.3z"
			/>
		<path d="M55.5,37.3h-0.7v-2.6c0-1-0.4-1.5-1.1-1.5c-0.4,0-0.7,0.1-0.9,0.4c-0.2,0.3-0.4,0.6-0.4,1v2.6h-0.7v-4.6h0.7v0.8h0
			c0.3-0.6,0.8-0.9,1.5-0.9c0.5,0,0.9,0.2,1.1,0.5c0.3,0.3,0.4,0.8,0.4,1.4V37.3z"/>
		<path d="M60.4,37.3c-0.2,0.1-0.4,0.1-0.7,0.1c-0.8,0-1.2-0.4-1.2-1.3v-2.7h-0.8v-0.6h0.8v-1.1l0.7-0.2v1.4h1.2v0.6h-1.2V36
			c0,0.3,0.1,0.5,0.2,0.7c0.1,0.1,0.3,0.2,0.5,0.2c0.2,0,0.3-0.1,0.5-0.2V37.3z"/>
		<path d="M66.5,35.2h-3.2c0,0.5,0.1,0.9,0.4,1.2c0.3,0.3,0.6,0.4,1.1,0.4c0.5,0,1-0.2,1.4-0.5V37c-0.4,0.3-0.9,0.4-1.6,0.4
			c-0.6,0-1.2-0.2-1.5-0.6c-0.4-0.4-0.6-1-0.6-1.8c0-0.7,0.2-1.3,0.6-1.7c0.4-0.4,0.9-0.7,1.5-0.7c0.6,0,1.1,0.2,1.4,0.6
			c0.3,0.4,0.5,0.9,0.5,1.6V35.2z M65.7,34.6c0-0.4-0.1-0.8-0.3-1c-0.2-0.2-0.5-0.4-0.8-0.4c-0.3,0-0.6,0.1-0.9,0.4
			c-0.2,0.2-0.4,0.6-0.4,1H65.7z"/>
		<path d="M71.4,33.5c-0.1-0.1-0.3-0.1-0.6-0.1c-0.3,0-0.6,0.1-0.8,0.4c-0.2,0.3-0.3,0.7-0.3,1.2v2.3H69v-4.6h0.7v0.9h0
			c0.1-0.3,0.3-0.6,0.5-0.8c0.2-0.2,0.5-0.3,0.7-0.3c0.2,0,0.3,0,0.4,0.1V33.5z"/>
		<path d="M76.5,31.2c-0.1-0.1-0.3-0.1-0.5-0.1c-0.5,0-0.8,0.3-0.8,1v0.7h1.1v0.6h-1.1v3.9h-0.7v-3.9h-0.8v-0.6h0.8V32
			c0-0.5,0.1-0.9,0.4-1.1s0.6-0.4,1-0.4c0.2,0,0.4,0,0.5,0.1V31.2z"/>
		<path d="M81.8,37.3h-0.7v-0.7h0c-0.3,0.5-0.8,0.8-1.4,0.8c-0.5,0-0.8-0.1-1.1-0.4s-0.4-0.6-0.4-1c0-0.9,0.5-1.4,1.5-1.5l1.4-0.2
			c0-0.8-0.3-1.2-0.9-1.2c-0.6,0-1,0.2-1.5,0.6v-0.8c0.4-0.3,1-0.4,1.6-0.4c1.1,0,1.6,0.6,1.6,1.7V37.3z M81.1,35L80,35.2
			c-0.3,0-0.6,0.1-0.8,0.3c-0.2,0.1-0.3,0.3-0.3,0.6c0,0.2,0.1,0.4,0.2,0.5c0.2,0.1,0.4,0.2,0.6,0.2c0.4,0,0.7-0.1,0.9-0.4
			c0.2-0.3,0.4-0.6,0.4-1V35z"/>
		<path d="M88,37.1c-0.4,0.2-0.8,0.3-1.3,0.3c-0.7,0-1.2-0.2-1.6-0.6c-0.4-0.4-0.6-1-0.6-1.6c0-0.8,0.2-1.4,0.6-1.8
			c0.4-0.5,1-0.7,1.7-0.7c0.4,0,0.8,0.1,1.1,0.2v0.8c-0.3-0.2-0.7-0.4-1.1-0.4c-0.5,0-0.9,0.2-1.1,0.5c-0.3,0.3-0.4,0.8-0.4,1.3
			c0,0.5,0.1,1,0.4,1.3c0.3,0.3,0.7,0.5,1.1,0.5c0.4,0,0.8-0.1,1.1-0.4V37.1z"/>
		<path d="M94.4,35.2h-3.2c0,0.5,0.1,0.9,0.4,1.2c0.3,0.3,0.6,0.4,1.1,0.4c0.5,0,1-0.2,1.4-0.5V37c-0.4,0.3-0.9,0.4-1.6,0.4
			c-0.6,0-1.2-0.2-1.5-0.6c-0.4-0.4-0.6-1-0.6-1.8c0-0.7,0.2-1.3,0.6-1.7c0.4-0.4,0.9-0.7,1.5-0.7c0.6,0,1.1,0.2,1.4,0.6
			c0.3,0.4,0.5,0.9,0.5,1.6V35.2z M93.6,34.6c0-0.4-0.1-0.8-0.3-1c-0.2-0.2-0.5-0.4-0.8-0.4c-0.3,0-0.6,0.1-0.9,0.4
			c-0.2,0.2-0.4,0.6-0.4,1H93.6z"/>
		<path d="M96.7,37.2v-0.8c0.4,0.3,0.8,0.4,1.3,0.4c0.6,0,1-0.2,1-0.6c0-0.1,0-0.2-0.1-0.3c-0.1-0.1-0.1-0.2-0.2-0.2
			c-0.1-0.1-0.2-0.1-0.3-0.2c-0.1-0.1-0.3-0.1-0.4-0.2c-0.2-0.1-0.4-0.2-0.5-0.2c-0.2-0.1-0.3-0.2-0.4-0.3c-0.1-0.1-0.2-0.2-0.2-0.3
			c-0.1-0.1-0.1-0.3-0.1-0.5c0-0.2,0-0.4,0.1-0.6c0.1-0.2,0.2-0.3,0.4-0.4c0.2-0.1,0.4-0.2,0.6-0.3c0.2-0.1,0.4-0.1,0.6-0.1
			c0.4,0,0.8,0.1,1.1,0.2v0.7c-0.3-0.2-0.7-0.3-1.2-0.3c-0.1,0-0.3,0-0.4,0c-0.1,0-0.2,0.1-0.3,0.1c-0.1,0.1-0.1,0.1-0.2,0.2
			c0,0.1-0.1,0.2-0.1,0.3c0,0.1,0,0.2,0.1,0.3c0,0.1,0.1,0.2,0.2,0.2c0.1,0.1,0.2,0.1,0.3,0.2c0.1,0,0.3,0.1,0.4,0.2
			c0.2,0.1,0.4,0.2,0.5,0.2c0.2,0.1,0.3,0.2,0.4,0.3c0.1,0.1,0.2,0.2,0.3,0.4c0.1,0.1,0.1,0.3,0.1,0.5c0,0.2,0,0.4-0.1,0.6
			c-0.1,0.2-0.2,0.3-0.4,0.4c-0.2,0.1-0.4,0.2-0.6,0.2c-0.2,0.1-0.4,0.1-0.7,0.1C97.4,37.5,97,37.4,96.7,37.2z"/>
	</g>
</g>
</svg>
